<svg xmlns="http://www.w3.org/2000/svg" xmlns:xlink="http://www.w3.org/1999/xlink" aria-hidden="true" role="img" class="iconify iconify--logos" width="31.88" height="32" preserveAspectRatio="xMidYMid meet" viewBox="0 0 256 257"><defs><linearGradient id="IconifyId1813088fe1fbc01fb466" x1="-.828%" x2="100.828%" y1="103.788%" y2="-.124%"><stop offset="0%" stop-color="#41D1FF"></stop><stop offset="100%" stop-color="#BD34FE"></stop></linearGradient><linearGradient id="IconifyId1813088fe1fbc01fb467" x1="15.564%" x2="84.436%" y1="18.388%" y2="81.612%"><stop offset="0%" stop-color="#FFEA83"></stop><stop offset="8.333%" stop-color="#FFDD35"></stop><stop offset="100%" stop-color="#FFA800"></stop></linearGradient></defs><path fill="url(#IconifyId1813088fe1fbc01fb466)" d="M255.153 37.343a37.153 37.153 0 0 1-52.544 0L128 111.944l-74.609-74.601a37.153 37.153 0 0 1-52.544 52.544L75.456 128L.847 202.609a37.153 37.153 0 1 1 52.544 52.544L128 180.552l74.609 74.601a37.153 37.153 0 1 1 52.544-52.544L180.544 128l74.609-74.609a37.153 37.153 0 0 1 0-52.544Z"></path><path fill="url(#IconifyId1813088fe1fbc01fb467)" d="M180.544 128L128 180.552L75.456 128L128 75.448l52.544 52.552Z"></path></svg>
